:FULLY-SPECIFIED
:FORCE-ALL-JOINTS-BE-3DOF
:DEGREES
49
root 8.5453 15.7847 -29.5569 7.12644 -10.1011 -4.71774
lfemur -40.4363 9.90425 -16.4374
ltibia 37.3407 0 0
lfoot -0.70531 6.00889 0
ltoes -1.56944 0 0
rfemur 19.7661 4.24923 24.0701
rtibia 13.0463 0 0
rfoot 2.18689 -1.53224 0
rtoes -29.3028 0 0
lowerback -7.84492 1.00498 1.25134
upperback -1.54353 1.05438 3.75542
thorax 2.75145 0.535353 3.29917
lowerneck -21.7173 -4.43546 -12.3164
upperneck 16.4683 -5.30309 14.2127
head 9.52225 -1.72366 6.29654
lclavicle -1.47628e-15 1.58483e-14 0
lhumerus -43.8763 -5.83864 90.9472
lradius 21.8363 0 0
lwrist -2.36488 0 0
lhand 6.82402 -16.6993 0
lfingers 7.12502 0 0
lthumb 32.1144 10.5478 0
rclavicle -1.47628e-15 1.58483e-14 0
rhumerus -45.6028 18.4535 -93.7947
rradius 50.5399 0 0
rwrist -24.7586 0 0
rhand -31.4907 -32.3137 0
rfingers 7.12502 0 0
rthumb -4.75693 -62.2379 0
50
root 8.58346 15.818 -29.4071 7.00689 -10.3069 -4.34074
lfemur -39.6576 9.89875 -16.9993
ltibia 37.1922 0 0
lfoot -1.23555 6.03486 0
ltoes -1.58793 0 0
rfemur 18.4421 3.88158 23.3838
rtibia 16.0485 0 0
rfoot 2.90521 -2.10122 0
rtoes -27.7347 0 0
lowerback -7.65856 0.983703 0.979994
upperback -1.59757 1.05212 3.66969
thorax 2.58793 0.535563 3.3582
lowerneck -21.7977 -4.40013 -12.2743
upperneck 16.5551 -5.24686 14.1235
head 9.55411 -1.70121 6.26836
lclavicle -1.59321e-15 1.38561e-14 0
lhumerus -43.7148 -5.73553 90.8091
lradius 21.6561 0 0
lwrist -2.56698 0 0
lhand 6.65811 -16.665 0
lfingers 7.12502 0 0
lthumb 31.9566 10.616 0
rclavicle -1.59321e-15 1.38561e-14 0
rhumerus -45.4416 18.0812 -93.64
rradius 49.5794 0 0
rwrist -24.3061 0 0
rhand -31.3439 -31.9023 0
rfingers 7.12502 0 0
rthumb -4.61524 -61.8291 0
51
root 8.62185 15.8533 -29.2582 6.88134 -10.5116 -3.94747
lfemur -38.8356 9.86574 -17.5667
ltibia 36.9935 0 0
lfoot -1.82878 6.08726 0
ltoes -1.63285 0 0
rfemur 17.0227 3.50067 22.6798
rtibia 19.1895 0 0
rfoot 3.6126 -2.69946 0
rtoes -26.0416 0 0
lowerback -7.46079 0.961605 0.699948
upperback -1.65351 1.04996 3.57708
thorax 2.41614 0.535894 3.41475
lowerneck -21.8781 -4.36359 -12.2279
upperneck 16.6457 -5.18996 14.0312
head 9.58698 -1.6785 6.23853
lclavicle -1.72625e-15 1.17141e-14 0
lhumerus -43.5347 -5.63827 90.661
lradius 21.4846 0 0
lwrist -2.75772 0 0
lhand 6.44663 -16.6424 0
lfingers 7.12502 0 0
lthumb 31.7552 10.6791 0
rclavicle -1.72625e-15 1.17141e-14 0
rhumerus -45.2647 17.6917 -93.4699
rradius 48.5967 0 0
rwrist -23.8516 0 0
rhand -31.1867 -31.4688 0
rfingers 7.12502 0 0
rthumb -4.46335 -61.3984 0
52
root 8.66029 15.8899 -29.1104 6.75098 -10.7127 -3.54192
lfemur -37.9773 9.80771 -18.1366
ltibia 36.7512 0 0
lfoot -2.47428 6.16262 0
ltoes -1.70042 0 0
rfemur 15.5235 3.11115 21.9654
rtibia 22.4325 0 0
rfoot 4.29937 -3.32017 0
rtoes -24.2525 0 0
lowerback -7.25435 0.938467 0.413638
upperback -1.71047 1.04728 3.47909
thorax 2.2386 0.536014 3.46903
lowerneck -21.9581 -4.32629 -12.178
upperneck 16.7396 -5.13286 13.9365
head 9.62075 -1.65576 6.20738
lclavicle -1.8761e-15 9.45822e-15 0
lhumerus -43.3356 -5.54898 90.5049
lradius 21.3235 0 0
lwrist -2.93571 0 0
lhand 6.19396 -16.6315 0
lfingers 7.12502 0 0
lthumb 31.5143 10.7362 0
rclavicle -1.8761e-15 9.45822e-15 0
rhumerus -45.0754 17.2897 -93.2871
rradius 47.601 0 0
rwrist -23.399 0 0
rhand -31.0216 -31.0182 0
rfingers 7.12502 0 0
rthumb -4.30398 -60.9508 0
53
root 8.69861 15.9276 -28.9635 6.61695 -10.9078 -3.12811
lfemur -37.09 9.7271 -18.706
ltibia 36.472 0 0
lfoot -3.16132 6.25744 0
ltoes -1.78683 0 0
rfemur 13.96 2.71769 21.2479
rtibia 25.7409 0 0
rfoot 4.95583 -3.95656 0
rtoes -22.3966 0 0
lowerback -7.04201 0.914066 0.123498
upperback -1.76757 1.0435 3.37723
thorax 2.05783 0.535592 3.52126
lowerneck -22.0372 -4.28869 -12.1256
upperneck 16.8363 -5.07605 13.8402
head 9.65528 -1.63322 6.17522
lclavicle -2.04346e-15 7.12401e-15 0
lhumerus -43.1173 -5.4698 90.3425
lradius 21.1747 0 0
lwrist -3.09954 0 0
lhand 5.90446 -16.6325 0
lfingers 7.12502 0 0
lthumb 31.2382 10.7863 0
rclavicle -2.04346e-15 7.12401e-15 0
rhumerus -44.877 16.8801 -93.0939
rradius 46.6016 0 0
rwrist -22.9517 0 0
rhand -30.8517 -30.5555 0
rfingers 7.12502 0 0
rthumb -4.13987 -60.4913 0
54
root 8.73662 15.9659 -28.8179 6.48042 -11.0946 -2.71001
lfemur -36.1807 9.62637 -19.2719
ltibia 36.1624 0 0
lfoot -3.87918 6.36824 0
ltoes -1.88829 0 0
rfemur 12.3476 2.32493 20.5346
rtibia 29.0781 0 0
rfoot 5.57232 -4.60182 0
rtoes -20.5026 0 0
lowerback -6.8265 0.88818 -0.168036
upperback -1.82393 1.03801 3.27298
thorax 1.87633 0.534294 3.57164
lowerneck -22.1152 -4.25125 -12.0717
upperneck 16.9353 -5.02 13.7429
head 9.69045 -1.61111 6.14239
lclavicle -2.22904e-15 4.74718e-15 0
lhumerus -42.8796 -5.40284 90.1757
lradius 21.0401 0 0
lwrist -3.24779 0 0
lhand 5.58249 -16.6455 0
lfingers 7.12502 0 0
lthumb 30.9309 10.8286 0
rclavicle -2.22904e-15 4.74718e-15 0
rhumerus -44.6729 16.4675 -92.8929
rradius 45.6081 0 0
rwrist -22.5134 0 0
rhand -30.6796 -30.086 0
rfingers 7.12502 0 0
rthumb -3.97375 -60.0248 0
